<?xml version="1.0" encoding="utf-8"?>
<!-- Generator: Adobe Illustrator 23.0.2, SVG Export Plug-In . SVG Version: 6.00 Build 0)  -->
<svg version="1.1" id="Layer_1" xmlns="http://www.w3.org/2000/svg" xmlns:xlink="http://www.w3.org/1999/xlink" x="0px" y="0px"
	 viewBox="0 0 34 34" style="enable-background:new 0 0 34 34;" xml:space="preserve">
<style type="text/css">
	.st0{fill:#4553A4;}
	.st1{fill:#5B2D8F;}
	.st2{fill:#912990;}
</style>
<path class="st0" d="M8.53,8.97v9.12c0,0.12,0.07,0.24,0.17,0.3l7.91,4.66c0.11,0.06,0.24,0.07,0.35,0l2.16-1.19
	c0.11-0.06,0.18-0.18,0.18-0.31v-3.96c0-0.08-0.08-0.12-0.15-0.08l-1.59,0.94c-0.11,0.06-0.24,0.07-0.35,0l-4.36-2.41
	c-0.2-0.11-0.33-0.32-0.34-0.56l-0.15-4.43c-0.01-0.2,0.09-0.39,0.26-0.5l3.96-2.55C16.76,7.9,16.98,7.89,17.16,8l4.59,2.64
	c0.1,0.06,0.22,0.05,0.31-0.01l1.44-0.96c0.14-0.09,0.32-0.09,0.46,0l1.46,0.99c0.1,0.07,0.23,0,0.23-0.12V8.63
	c0-0.15-0.08-0.3-0.22-0.37l-8.14-4.71c-0.13-0.07-0.28-0.07-0.41,0l-8.01,4.8C8.66,8.48,8.53,8.71,8.53,8.97z"/>
<path class="st1" d="M8.09,12.41v3.95c0,0.12-0.06,0.23-0.17,0.28L5.8,17.76c-0.12,0.06-0.2,0.19-0.2,0.32l-0.05,5.24
	c0,0.15,0.08,0.29,0.21,0.37l4.19,2.37c0.09,0.05,0.2,0.05,0.29,0l4.24-2.38c0.08-0.05,0.14-0.13,0.15-0.23l0.1-0.73
	c0.01-0.1,0.13-0.15,0.21-0.1l1.76,1.15l1.73-0.97c0.08-0.04,0.18,0.01,0.18,0.1v2.33c0,0.11-0.06,0.22-0.16,0.28l-8.09,4.93
	c-0.13,0.08-0.3,0.08-0.43,0l-8.15-4.79c-0.13-0.08-0.21-0.21-0.21-0.36v-9.12c0-0.16,0.09-0.31,0.23-0.39l6.04-3.52
	C7.95,12.2,8.09,12.28,8.09,12.41z"/>
<path class="st2" d="M19.28,22.85c-0.03-0.02-0.07,0-0.07,0.04v2.3v0.16c0,0.17-0.08,0.34-0.23,0.44l-0.96,0.68
	c-0.06,0.04-0.05,0.13,0.01,0.16l5.49,3.25c0.13,0.07,0.28,0.07,0.41,0l8.27-4.91c0.13-0.08,0.22-0.22,0.22-0.38v-9.06
	c0-0.23-0.12-0.44-0.32-0.55l-8.09-4.62c-0.19-0.11-0.43-0.11-0.63,0l-7.78,4.49c-0.12,0.07-0.2,0.2-0.2,0.34v1.71l1.81,0.96
	c0.1,0.05,0.22,0.05,0.31,0l5.84-3.14c0.22-0.12,0.48-0.1,0.69,0.03L28,17.36c0.14,0.09,0.23,0.25,0.22,0.42l-0.03,4.6
	c0,0.11-0.05,0.2-0.14,0.26l-4.17,2.7c-0.13,0.08-0.29,0.08-0.41,0.01L19.28,22.85z"/>
</svg>
